<mxfile host="Electron" agent="Mozilla/5.0 (Windows NT 10.0; Win64; x64) AppleWebKit/537.36 (KHTML, like Gecko) draw.io/26.0.16 Chrome/132.0.6834.196 Electron/34.2.0 Safari/537.36" version="26.0.16">
  <diagram name="Sayfa -1" id="4hQiGwstA-hKCKtJ1bKu">
    <mxGraphModel dx="2261" dy="2005" grid="1" gridSize="10" guides="1" tooltips="1" connect="1" arrows="1" fold="1" page="1" pageScale="1" pageWidth="827" pageHeight="1169" math="0" shadow="0">
      <root>
        <mxCell id="0" />
        <mxCell id="1" parent="0" />
        <mxCell id="e5CkcNzQbHRtyyJBKM_Y-2" value="company" style="rounded=0;whiteSpace=wrap;html=1;fillColor=#60a917;fontColor=#ffffff;strokeColor=#2D7600;" parent="1" vertex="1">
          <mxGeometry x="-150" y="-230" width="120" height="60" as="geometry" />
        </mxCell>
        <mxCell id="e5CkcNzQbHRtyyJBKM_Y-17" value="job_posting" style="rounded=0;whiteSpace=wrap;html=1;fillColor=#60a917;fontColor=#ffffff;strokeColor=#2D7600;" parent="1" vertex="1">
          <mxGeometry x="-150" y="230" width="120" height="60" as="geometry" />
        </mxCell>
        <mxCell id="e5CkcNzQbHRtyyJBKM_Y-19" value="posts" style="rhombus;whiteSpace=wrap;html=1;fillColor=#a20025;fontColor=#ffffff;strokeColor=#6F0000;" parent="1" vertex="1">
          <mxGeometry x="-130" y="-10" width="80" height="80" as="geometry" />
        </mxCell>
        <mxCell id="e5CkcNzQbHRtyyJBKM_Y-22" value="job_seeker" style="rounded=0;whiteSpace=wrap;html=1;fillColor=#60a917;fontColor=#ffffff;strokeColor=#2D7600;" parent="1" vertex="1">
          <mxGeometry x="370" y="230" width="120" height="60" as="geometry" />
        </mxCell>
        <mxCell id="e5CkcNzQbHRtyyJBKM_Y-23" value="applies" style="rhombus;whiteSpace=wrap;html=1;fillColor=#a20025;fontColor=#ffffff;strokeColor=#6F0000;" parent="1" vertex="1">
          <mxGeometry x="130" y="220" width="80" height="80" as="geometry" />
        </mxCell>
        <mxCell id="e5CkcNzQbHRtyyJBKM_Y-37" value="" style="endArrow=none;html=1;rounded=0;entryX=0.5;entryY=1;entryDx=0;entryDy=0;exitX=0.5;exitY=0;exitDx=0;exitDy=0;" parent="1" source="e5CkcNzQbHRtyyJBKM_Y-19" target="e5CkcNzQbHRtyyJBKM_Y-2" edge="1">
          <mxGeometry width="50" height="50" relative="1" as="geometry">
            <mxPoint x="-120" y="-130" as="sourcePoint" />
            <mxPoint x="-70" y="-180" as="targetPoint" />
          </mxGeometry>
        </mxCell>
        <mxCell id="e5CkcNzQbHRtyyJBKM_Y-38" value="" style="endArrow=none;html=1;rounded=0;entryX=0.5;entryY=1;entryDx=0;entryDy=0;exitX=0.5;exitY=0;exitDx=0;exitDy=0;" parent="1" source="e5CkcNzQbHRtyyJBKM_Y-17" target="e5CkcNzQbHRtyyJBKM_Y-19" edge="1">
          <mxGeometry width="50" height="50" relative="1" as="geometry">
            <mxPoint x="-115" y="220" as="sourcePoint" />
            <mxPoint x="-65" y="170" as="targetPoint" />
          </mxGeometry>
        </mxCell>
        <mxCell id="e5CkcNzQbHRtyyJBKM_Y-40" value="" style="endArrow=none;html=1;rounded=0;exitX=1;exitY=0.5;exitDx=0;exitDy=0;entryX=0;entryY=0.5;entryDx=0;entryDy=0;" parent="1" source="e5CkcNzQbHRtyyJBKM_Y-17" target="e5CkcNzQbHRtyyJBKM_Y-23" edge="1">
          <mxGeometry width="50" height="50" relative="1" as="geometry">
            <mxPoint x="80" y="410" as="sourcePoint" />
            <mxPoint x="130" y="360" as="targetPoint" />
          </mxGeometry>
        </mxCell>
        <mxCell id="e5CkcNzQbHRtyyJBKM_Y-41" value="" style="endArrow=none;html=1;rounded=0;exitX=1;exitY=0.5;exitDx=0;exitDy=0;entryX=0;entryY=0.5;entryDx=0;entryDy=0;" parent="1" source="e5CkcNzQbHRtyyJBKM_Y-23" target="e5CkcNzQbHRtyyJBKM_Y-22" edge="1">
          <mxGeometry width="50" height="50" relative="1" as="geometry">
            <mxPoint x="383.5" y="415" as="sourcePoint" />
            <mxPoint x="433.5" y="365" as="targetPoint" />
          </mxGeometry>
        </mxCell>
        <mxCell id="e5CkcNzQbHRtyyJBKM_Y-43" value="messages" style="rhombus;whiteSpace=wrap;html=1;fillColor=#a20025;fontColor=#ffffff;strokeColor=#6F0000;" parent="1" vertex="1">
          <mxGeometry x="130" y="-10" width="80" height="80" as="geometry" />
        </mxCell>
        <mxCell id="e5CkcNzQbHRtyyJBKM_Y-46" value="" style="endArrow=none;html=1;rounded=0;entryX=1;entryY=0.5;entryDx=0;entryDy=0;exitX=0.5;exitY=0;exitDx=0;exitDy=0;" parent="1" source="e5CkcNzQbHRtyyJBKM_Y-22" target="e5CkcNzQbHRtyyJBKM_Y-43" edge="1">
          <mxGeometry width="50" height="50" relative="1" as="geometry">
            <mxPoint x="580" y="70" as="sourcePoint" />
            <mxPoint x="630" y="20" as="targetPoint" />
            <Array as="points">
              <mxPoint x="430" y="30" />
            </Array>
          </mxGeometry>
        </mxCell>
        <mxCell id="zJh53q6nYN4ZoicOSqgn-1" value="company_id" style="ellipse;whiteSpace=wrap;html=1;fontStyle=4;fillColor=#647687;fontColor=#ffffff;strokeColor=#314354;" parent="1" vertex="1">
          <mxGeometry x="-150" y="-400" width="80" height="40" as="geometry" />
        </mxCell>
        <mxCell id="zBm_orGE7oxzUlVK6M75-9" style="edgeStyle=orthogonalEdgeStyle;rounded=0;orthogonalLoop=1;jettySize=auto;html=1;entryX=0.75;entryY=0;entryDx=0;entryDy=0;" parent="1" source="zJh53q6nYN4ZoicOSqgn-2" target="e5CkcNzQbHRtyyJBKM_Y-2" edge="1">
          <mxGeometry relative="1" as="geometry" />
        </mxCell>
        <mxCell id="zJh53q6nYN4ZoicOSqgn-2" value="user_name" style="ellipse;whiteSpace=wrap;html=1;fillColor=#647687;fontColor=#ffffff;strokeColor=#314354;" parent="1" vertex="1">
          <mxGeometry x="60" y="-300" width="80" height="40" as="geometry" />
        </mxCell>
        <mxCell id="zJh53q6nYN4ZoicOSqgn-3" value="company_name" style="ellipse;whiteSpace=wrap;html=1;fillColor=#647687;fontColor=#ffffff;strokeColor=#314354;" parent="1" vertex="1">
          <mxGeometry x="-370" y="-290" width="100" height="40" as="geometry" />
        </mxCell>
        <mxCell id="zBm_orGE7oxzUlVK6M75-5" style="edgeStyle=orthogonalEdgeStyle;rounded=0;orthogonalLoop=1;jettySize=auto;html=1;entryX=0;entryY=0.25;entryDx=0;entryDy=0;" parent="1" source="zJh53q6nYN4ZoicOSqgn-4" target="e5CkcNzQbHRtyyJBKM_Y-2" edge="1">
          <mxGeometry relative="1" as="geometry" />
        </mxCell>
        <mxCell id="zJh53q6nYN4ZoicOSqgn-4" value="password" style="ellipse;whiteSpace=wrap;html=1;fillColor=#647687;fontColor=#ffffff;strokeColor=#314354;" parent="1" vertex="1">
          <mxGeometry x="-260" y="-400" width="80" height="40" as="geometry" />
        </mxCell>
        <mxCell id="zBm_orGE7oxzUlVK6M75-7" style="edgeStyle=orthogonalEdgeStyle;rounded=0;orthogonalLoop=1;jettySize=auto;html=1;entryX=0.5;entryY=0;entryDx=0;entryDy=0;" parent="1" source="zJh53q6nYN4ZoicOSqgn-5" target="e5CkcNzQbHRtyyJBKM_Y-2" edge="1">
          <mxGeometry relative="1" as="geometry" />
        </mxCell>
        <mxCell id="zJh53q6nYN4ZoicOSqgn-5" value="industry" style="ellipse;whiteSpace=wrap;html=1;fillColor=#647687;fontColor=#ffffff;strokeColor=#314354;" parent="1" vertex="1">
          <mxGeometry x="-50" y="-400" width="80" height="40" as="geometry" />
        </mxCell>
        <mxCell id="zJh53q6nYN4ZoicOSqgn-6" value="tax_number" style="ellipse;whiteSpace=wrap;html=1;fillColor=#647687;fontColor=#ffffff;strokeColor=#314354;" parent="1" vertex="1">
          <mxGeometry x="-280" y="-150" width="80" height="40" as="geometry" />
        </mxCell>
        <mxCell id="zBm_orGE7oxzUlVK6M75-2" style="edgeStyle=orthogonalEdgeStyle;rounded=0;orthogonalLoop=1;jettySize=auto;html=1;entryX=0;entryY=0.75;entryDx=0;entryDy=0;" parent="1" source="zJh53q6nYN4ZoicOSqgn-7" target="e5CkcNzQbHRtyyJBKM_Y-2" edge="1">
          <mxGeometry relative="1" as="geometry" />
        </mxCell>
        <mxCell id="zJh53q6nYN4ZoicOSqgn-7" value="address" style="ellipse;whiteSpace=wrap;html=1;fillColor=#647687;fontColor=#ffffff;strokeColor=#314354;" parent="1" vertex="1">
          <mxGeometry x="-360" y="-210" width="80" height="40" as="geometry" />
        </mxCell>
        <mxCell id="zBm_orGE7oxzUlVK6M75-8" style="edgeStyle=orthogonalEdgeStyle;rounded=0;orthogonalLoop=1;jettySize=auto;html=1;entryX=1;entryY=0.25;entryDx=0;entryDy=0;" parent="1" source="zJh53q6nYN4ZoicOSqgn-8" target="e5CkcNzQbHRtyyJBKM_Y-2" edge="1">
          <mxGeometry relative="1" as="geometry" />
        </mxCell>
        <mxCell id="zJh53q6nYN4ZoicOSqgn-8" value="email" style="ellipse;whiteSpace=wrap;html=1;fillColor=#647687;fontColor=#ffffff;strokeColor=#314354;" parent="1" vertex="1">
          <mxGeometry x="60" y="-370" width="80" height="40" as="geometry" />
        </mxCell>
        <mxCell id="zBm_orGE7oxzUlVK6M75-4" style="edgeStyle=orthogonalEdgeStyle;rounded=0;orthogonalLoop=1;jettySize=auto;html=1;entryX=0;entryY=0.5;entryDx=0;entryDy=0;" parent="1" source="zJh53q6nYN4ZoicOSqgn-10" target="e5CkcNzQbHRtyyJBKM_Y-2" edge="1">
          <mxGeometry relative="1" as="geometry" />
        </mxCell>
        <mxCell id="zJh53q6nYN4ZoicOSqgn-10" value="phone" style="ellipse;whiteSpace=wrap;html=1;fillColor=#647687;fontColor=#ffffff;strokeColor=#314354;" parent="1" vertex="1">
          <mxGeometry x="-360" y="-360" width="80" height="40" as="geometry" />
        </mxCell>
        <mxCell id="zJh53q6nYN4ZoicOSqgn-15" value="" style="endArrow=none;html=1;rounded=0;entryX=0.5;entryY=1;entryDx=0;entryDy=0;exitX=0.5;exitY=0;exitDx=0;exitDy=0;" parent="1" source="e5CkcNzQbHRtyyJBKM_Y-43" edge="1">
          <mxGeometry width="50" height="50" relative="1" as="geometry">
            <mxPoint x="230" y="-40" as="sourcePoint" />
            <mxPoint x="-30" y="-200" as="targetPoint" />
            <Array as="points">
              <mxPoint x="170" y="-200" />
            </Array>
          </mxGeometry>
        </mxCell>
        <mxCell id="zBm_orGE7oxzUlVK6M75-1" style="edgeStyle=orthogonalEdgeStyle;rounded=0;orthogonalLoop=1;jettySize=auto;html=1;entryX=0.075;entryY=0.05;entryDx=0;entryDy=0;entryPerimeter=0;" parent="1" source="zJh53q6nYN4ZoicOSqgn-3" target="e5CkcNzQbHRtyyJBKM_Y-2" edge="1">
          <mxGeometry relative="1" as="geometry" />
        </mxCell>
        <mxCell id="zBm_orGE7oxzUlVK6M75-3" style="edgeStyle=orthogonalEdgeStyle;rounded=0;orthogonalLoop=1;jettySize=auto;html=1;entryX=0.058;entryY=0.983;entryDx=0;entryDy=0;entryPerimeter=0;" parent="1" source="zJh53q6nYN4ZoicOSqgn-6" target="e5CkcNzQbHRtyyJBKM_Y-2" edge="1">
          <mxGeometry relative="1" as="geometry" />
        </mxCell>
        <mxCell id="zBm_orGE7oxzUlVK6M75-6" style="edgeStyle=orthogonalEdgeStyle;rounded=0;orthogonalLoop=1;jettySize=auto;html=1;entryX=0.333;entryY=0.083;entryDx=0;entryDy=0;entryPerimeter=0;" parent="1" source="zJh53q6nYN4ZoicOSqgn-1" target="e5CkcNzQbHRtyyJBKM_Y-2" edge="1">
          <mxGeometry relative="1" as="geometry" />
        </mxCell>
        <mxCell id="zBm_orGE7oxzUlVK6M75-10" value="Date_time" style="ellipse;whiteSpace=wrap;html=1;fillColor=#647687;fontColor=#ffffff;strokeColor=#314354;fontStyle=4" parent="1" vertex="1">
          <mxGeometry x="220" y="-150" width="80" height="40" as="geometry" />
        </mxCell>
        <mxCell id="zBm_orGE7oxzUlVK6M75-11" value="context" style="ellipse;whiteSpace=wrap;html=1;fillColor=#647687;fontColor=#ffffff;strokeColor=#314354;" parent="1" vertex="1">
          <mxGeometry x="60" y="-150" width="80" height="40" as="geometry" />
        </mxCell>
        <mxCell id="zBm_orGE7oxzUlVK6M75-19" style="edgeStyle=orthogonalEdgeStyle;rounded=0;orthogonalLoop=1;jettySize=auto;html=1;entryX=0.5;entryY=1;entryDx=0;entryDy=0;" parent="1" source="zBm_orGE7oxzUlVK6M75-12" target="e5CkcNzQbHRtyyJBKM_Y-43" edge="1">
          <mxGeometry relative="1" as="geometry" />
        </mxCell>
        <mxCell id="zBm_orGE7oxzUlVK6M75-12" value="message_İD" style="ellipse;whiteSpace=wrap;html=1;fillColor=#647687;fontColor=#ffffff;strokeColor=#314354;" parent="1" vertex="1">
          <mxGeometry x="130" y="100" width="80" height="40" as="geometry" />
        </mxCell>
        <mxCell id="zBm_orGE7oxzUlVK6M75-16" style="edgeStyle=orthogonalEdgeStyle;rounded=0;orthogonalLoop=1;jettySize=auto;html=1;entryX=0;entryY=0;entryDx=0;entryDy=0;" parent="1" source="zBm_orGE7oxzUlVK6M75-13" target="e5CkcNzQbHRtyyJBKM_Y-43" edge="1">
          <mxGeometry relative="1" as="geometry" />
        </mxCell>
        <mxCell id="zBm_orGE7oxzUlVK6M75-13" value="sender_id" style="ellipse;whiteSpace=wrap;html=1;fillColor=#a0522d;strokeColor=#6D1F00;fontStyle=0;fontColor=#ffffff;" parent="1" vertex="1">
          <mxGeometry x="50" y="-60" width="80" height="40" as="geometry" />
        </mxCell>
        <mxCell id="zBm_orGE7oxzUlVK6M75-15" style="edgeStyle=orthogonalEdgeStyle;rounded=0;orthogonalLoop=1;jettySize=auto;html=1;entryX=1;entryY=0;entryDx=0;entryDy=0;" parent="1" source="zBm_orGE7oxzUlVK6M75-14" target="e5CkcNzQbHRtyyJBKM_Y-43" edge="1">
          <mxGeometry relative="1" as="geometry" />
        </mxCell>
        <mxCell id="zBm_orGE7oxzUlVK6M75-14" value="reciever_id" style="ellipse;whiteSpace=wrap;html=1;fillColor=#a0522d;fontColor=#ffffff;strokeColor=#6D1F00;" parent="1" vertex="1">
          <mxGeometry x="220" y="-70" width="80" height="40" as="geometry" />
        </mxCell>
        <mxCell id="zBm_orGE7oxzUlVK6M75-17" style="edgeStyle=orthogonalEdgeStyle;rounded=0;orthogonalLoop=1;jettySize=auto;html=1;entryX=0.875;entryY=0.45;entryDx=0;entryDy=0;entryPerimeter=0;" parent="1" source="zBm_orGE7oxzUlVK6M75-10" target="e5CkcNzQbHRtyyJBKM_Y-43" edge="1">
          <mxGeometry relative="1" as="geometry" />
        </mxCell>
        <mxCell id="zBm_orGE7oxzUlVK6M75-18" style="edgeStyle=orthogonalEdgeStyle;rounded=0;orthogonalLoop=1;jettySize=auto;html=1;entryX=0.375;entryY=0.188;entryDx=0;entryDy=0;entryPerimeter=0;" parent="1" source="zBm_orGE7oxzUlVK6M75-11" target="e5CkcNzQbHRtyyJBKM_Y-43" edge="1">
          <mxGeometry relative="1" as="geometry" />
        </mxCell>
        <mxCell id="zBm_orGE7oxzUlVK6M75-77" style="edgeStyle=orthogonalEdgeStyle;rounded=0;orthogonalLoop=1;jettySize=auto;html=1;entryX=0.5;entryY=1;entryDx=0;entryDy=0;" parent="1" source="zBm_orGE7oxzUlVK6M75-20" target="e5CkcNzQbHRtyyJBKM_Y-22" edge="1">
          <mxGeometry relative="1" as="geometry" />
        </mxCell>
        <mxCell id="zBm_orGE7oxzUlVK6M75-20" value="address" style="ellipse;whiteSpace=wrap;html=1;fillColor=#647687;fontColor=#ffffff;strokeColor=#314354;" parent="1" vertex="1">
          <mxGeometry x="390" y="360" width="80" height="40" as="geometry" />
        </mxCell>
        <mxCell id="zBm_orGE7oxzUlVK6M75-21" value="gender" style="ellipse;whiteSpace=wrap;html=1;fillColor=#647687;fontColor=#ffffff;strokeColor=#314354;" parent="1" vertex="1">
          <mxGeometry x="520" y="310" width="80" height="40" as="geometry" />
        </mxCell>
        <mxCell id="zBm_orGE7oxzUlVK6M75-37" style="edgeStyle=orthogonalEdgeStyle;rounded=0;orthogonalLoop=1;jettySize=auto;html=1;entryX=1;entryY=0.75;entryDx=0;entryDy=0;" parent="1" source="zBm_orGE7oxzUlVK6M75-22" target="e5CkcNzQbHRtyyJBKM_Y-22" edge="1">
          <mxGeometry relative="1" as="geometry" />
        </mxCell>
        <mxCell id="zBm_orGE7oxzUlVK6M75-22" value="last_name" style="ellipse;whiteSpace=wrap;html=1;fillColor=#647687;fontColor=#ffffff;strokeColor=#314354;" parent="1" vertex="1">
          <mxGeometry x="520" y="260" width="80" height="40" as="geometry" />
        </mxCell>
        <mxCell id="zBm_orGE7oxzUlVK6M75-36" style="edgeStyle=orthogonalEdgeStyle;rounded=0;orthogonalLoop=1;jettySize=auto;html=1;entryX=1;entryY=0.25;entryDx=0;entryDy=0;" parent="1" source="zBm_orGE7oxzUlVK6M75-23" target="e5CkcNzQbHRtyyJBKM_Y-22" edge="1">
          <mxGeometry relative="1" as="geometry" />
        </mxCell>
        <mxCell id="zBm_orGE7oxzUlVK6M75-23" value="first_name" style="ellipse;whiteSpace=wrap;html=1;fillColor=#647687;fontColor=#ffffff;strokeColor=#314354;" parent="1" vertex="1">
          <mxGeometry x="520" y="220" width="80" height="40" as="geometry" />
        </mxCell>
        <mxCell id="zBm_orGE7oxzUlVK6M75-24" value="password" style="ellipse;whiteSpace=wrap;html=1;fillColor=#647687;fontColor=#ffffff;strokeColor=#314354;" parent="1" vertex="1">
          <mxGeometry x="480" y="120" width="80" height="40" as="geometry" />
        </mxCell>
        <mxCell id="zBm_orGE7oxzUlVK6M75-25" value="user_name" style="ellipse;whiteSpace=wrap;html=1;fillColor=#647687;fontColor=#ffffff;strokeColor=#314354;" parent="1" vertex="1">
          <mxGeometry x="480" y="60" width="80" height="40" as="geometry" />
        </mxCell>
        <mxCell id="zBm_orGE7oxzUlVK6M75-35" style="edgeStyle=orthogonalEdgeStyle;rounded=0;orthogonalLoop=1;jettySize=auto;html=1;entryX=0;entryY=0;entryDx=0;entryDy=0;" parent="1" source="zBm_orGE7oxzUlVK6M75-26" target="e5CkcNzQbHRtyyJBKM_Y-22" edge="1">
          <mxGeometry relative="1" as="geometry" />
        </mxCell>
        <mxCell id="zBm_orGE7oxzUlVK6M75-26" value="job_seeker_İD" style="ellipse;whiteSpace=wrap;html=1;fontStyle=4;fillColor=#647687;fontColor=#ffffff;strokeColor=#314354;" parent="1" vertex="1">
          <mxGeometry x="320" y="120" width="80" height="50" as="geometry" />
        </mxCell>
        <mxCell id="zBm_orGE7oxzUlVK6M75-40" style="edgeStyle=orthogonalEdgeStyle;rounded=0;orthogonalLoop=1;jettySize=auto;html=1;entryX=0.25;entryY=1;entryDx=0;entryDy=0;" parent="1" source="zBm_orGE7oxzUlVK6M75-27" target="e5CkcNzQbHRtyyJBKM_Y-22" edge="1">
          <mxGeometry relative="1" as="geometry" />
        </mxCell>
        <mxCell id="zBm_orGE7oxzUlVK6M75-27" value="phone" style="ellipse;whiteSpace=wrap;html=1;fillColor=#647687;fontColor=#ffffff;strokeColor=#314354;" parent="1" vertex="1">
          <mxGeometry x="300" y="360" width="80" height="40" as="geometry" />
        </mxCell>
        <mxCell id="zBm_orGE7oxzUlVK6M75-28" value="email" style="ellipse;whiteSpace=wrap;html=1;fillColor=#647687;fontColor=#ffffff;strokeColor=#314354;" parent="1" vertex="1">
          <mxGeometry x="320" y="70" width="80" height="40" as="geometry" />
        </mxCell>
        <mxCell id="zBm_orGE7oxzUlVK6M75-29" value="cv" style="ellipse;whiteSpace=wrap;html=1;fillColor=#647687;fontColor=#ffffff;strokeColor=#314354;" parent="1" vertex="1">
          <mxGeometry x="520" y="360" width="80" height="40" as="geometry" />
        </mxCell>
        <mxCell id="zBm_orGE7oxzUlVK6M75-32" style="edgeStyle=orthogonalEdgeStyle;rounded=0;orthogonalLoop=1;jettySize=auto;html=1;entryX=0.142;entryY=0.017;entryDx=0;entryDy=0;entryPerimeter=0;exitX=1;exitY=0.5;exitDx=0;exitDy=0;" parent="1" source="zBm_orGE7oxzUlVK6M75-28" target="e5CkcNzQbHRtyyJBKM_Y-22" edge="1">
          <mxGeometry relative="1" as="geometry">
            <mxPoint x="410" y="160" as="sourcePoint" />
          </mxGeometry>
        </mxCell>
        <mxCell id="zBm_orGE7oxzUlVK6M75-33" style="edgeStyle=orthogonalEdgeStyle;rounded=0;orthogonalLoop=1;jettySize=auto;html=1;entryX=0.625;entryY=0.017;entryDx=0;entryDy=0;entryPerimeter=0;" parent="1" edge="1">
          <mxGeometry relative="1" as="geometry">
            <mxPoint x="510" y="100" as="sourcePoint" />
            <mxPoint x="435" y="231.01999999999998" as="targetPoint" />
          </mxGeometry>
        </mxCell>
        <mxCell id="zBm_orGE7oxzUlVK6M75-34" style="edgeStyle=orthogonalEdgeStyle;rounded=0;orthogonalLoop=1;jettySize=auto;html=1;entryX=0.683;entryY=0.05;entryDx=0;entryDy=0;entryPerimeter=0;" parent="1" source="zBm_orGE7oxzUlVK6M75-24" target="e5CkcNzQbHRtyyJBKM_Y-22" edge="1">
          <mxGeometry relative="1" as="geometry" />
        </mxCell>
        <mxCell id="zBm_orGE7oxzUlVK6M75-38" style="edgeStyle=orthogonalEdgeStyle;rounded=0;orthogonalLoop=1;jettySize=auto;html=1;entryX=0.942;entryY=1.017;entryDx=0;entryDy=0;entryPerimeter=0;" parent="1" source="zBm_orGE7oxzUlVK6M75-21" target="e5CkcNzQbHRtyyJBKM_Y-22" edge="1">
          <mxGeometry relative="1" as="geometry" />
        </mxCell>
        <mxCell id="zBm_orGE7oxzUlVK6M75-42" style="edgeStyle=orthogonalEdgeStyle;rounded=0;orthogonalLoop=1;jettySize=auto;html=1;entryX=0.867;entryY=1.033;entryDx=0;entryDy=0;entryPerimeter=0;" parent="1" source="zBm_orGE7oxzUlVK6M75-29" target="e5CkcNzQbHRtyyJBKM_Y-22" edge="1">
          <mxGeometry relative="1" as="geometry" />
        </mxCell>
        <mxCell id="zBm_orGE7oxzUlVK6M75-43" value="title" style="ellipse;whiteSpace=wrap;html=1;fillColor=#647687;fontColor=#ffffff;strokeColor=#314354;" parent="1" vertex="1">
          <mxGeometry x="-250" y="210" width="80" height="40" as="geometry" />
        </mxCell>
        <mxCell id="zBm_orGE7oxzUlVK6M75-44" value="description" style="ellipse;whiteSpace=wrap;html=1;fillColor=#647687;fontColor=#ffffff;strokeColor=#314354;" parent="1" vertex="1">
          <mxGeometry x="-250" y="150" width="80" height="40" as="geometry" />
        </mxCell>
        <mxCell id="zBm_orGE7oxzUlVK6M75-45" value="country" style="ellipse;whiteSpace=wrap;html=1;fillColor=#647687;fontColor=#ffffff;strokeColor=#314354;" parent="1" vertex="1">
          <mxGeometry x="-240" y="330" width="80" height="40" as="geometry" />
        </mxCell>
        <mxCell id="zBm_orGE7oxzUlVK6M75-46" value="city" style="ellipse;whiteSpace=wrap;html=1;fillColor=#647687;fontColor=#ffffff;strokeColor=#314354;" parent="1" vertex="1">
          <mxGeometry x="-260" y="270" width="80" height="40" as="geometry" />
        </mxCell>
        <mxCell id="zBm_orGE7oxzUlVK6M75-52" style="edgeStyle=orthogonalEdgeStyle;rounded=0;orthogonalLoop=1;jettySize=auto;html=1;entryX=0.5;entryY=1;entryDx=0;entryDy=0;" parent="1" source="zBm_orGE7oxzUlVK6M75-47" target="e5CkcNzQbHRtyyJBKM_Y-17" edge="1">
          <mxGeometry relative="1" as="geometry" />
        </mxCell>
        <mxCell id="zBm_orGE7oxzUlVK6M75-47" value="job_posting_İD" style="ellipse;whiteSpace=wrap;html=1;fillColor=#647687;fontColor=#ffffff;strokeColor=#314354;fontStyle=4" parent="1" vertex="1">
          <mxGeometry x="-130" y="330" width="80" height="40" as="geometry" />
        </mxCell>
        <mxCell id="zBm_orGE7oxzUlVK6M75-48" style="edgeStyle=orthogonalEdgeStyle;rounded=0;orthogonalLoop=1;jettySize=auto;html=1;entryX=0.375;entryY=0.05;entryDx=0;entryDy=0;entryPerimeter=0;" parent="1" source="zBm_orGE7oxzUlVK6M75-44" target="e5CkcNzQbHRtyyJBKM_Y-17" edge="1">
          <mxGeometry relative="1" as="geometry" />
        </mxCell>
        <mxCell id="zBm_orGE7oxzUlVK6M75-49" style="edgeStyle=orthogonalEdgeStyle;rounded=0;orthogonalLoop=1;jettySize=auto;html=1;entryX=0.058;entryY=-0.05;entryDx=0;entryDy=0;entryPerimeter=0;" parent="1" source="zBm_orGE7oxzUlVK6M75-43" target="e5CkcNzQbHRtyyJBKM_Y-17" edge="1">
          <mxGeometry relative="1" as="geometry" />
        </mxCell>
        <mxCell id="zBm_orGE7oxzUlVK6M75-50" style="edgeStyle=orthogonalEdgeStyle;rounded=0;orthogonalLoop=1;jettySize=auto;html=1;entryX=0.008;entryY=0.883;entryDx=0;entryDy=0;entryPerimeter=0;" parent="1" source="zBm_orGE7oxzUlVK6M75-46" target="e5CkcNzQbHRtyyJBKM_Y-17" edge="1">
          <mxGeometry relative="1" as="geometry" />
        </mxCell>
        <mxCell id="zBm_orGE7oxzUlVK6M75-51" style="edgeStyle=orthogonalEdgeStyle;rounded=0;orthogonalLoop=1;jettySize=auto;html=1;entryX=0.075;entryY=1.05;entryDx=0;entryDy=0;entryPerimeter=0;" parent="1" source="zBm_orGE7oxzUlVK6M75-45" target="e5CkcNzQbHRtyyJBKM_Y-17" edge="1">
          <mxGeometry relative="1" as="geometry" />
        </mxCell>
        <mxCell id="zBm_orGE7oxzUlVK6M75-53" value="is_active" style="ellipse;whiteSpace=wrap;html=1;fillColor=#647687;fontColor=#ffffff;strokeColor=#314354;" parent="1" vertex="1">
          <mxGeometry x="-40" y="-20" width="80" height="40" as="geometry" />
        </mxCell>
        <mxCell id="zBm_orGE7oxzUlVK6M75-60" style="edgeStyle=orthogonalEdgeStyle;rounded=0;orthogonalLoop=1;jettySize=auto;html=1;entryX=1;entryY=1;entryDx=0;entryDy=0;" parent="1" source="zBm_orGE7oxzUlVK6M75-54" target="e5CkcNzQbHRtyyJBKM_Y-19" edge="1">
          <mxGeometry relative="1" as="geometry" />
        </mxCell>
        <mxCell id="zBm_orGE7oxzUlVK6M75-54" value="job_positng_İD" style="ellipse;whiteSpace=wrap;html=1;fillColor=#a0522d;fontColor=#ffffff;strokeColor=#6D1F00;" parent="1" vertex="1">
          <mxGeometry x="-50" y="70" width="80" height="40" as="geometry" />
        </mxCell>
        <mxCell id="zBm_orGE7oxzUlVK6M75-55" value="company_id" style="ellipse;whiteSpace=wrap;html=1;fillColor=#a0522d;fontColor=#ffffff;strokeColor=#6D1F00;" parent="1" vertex="1">
          <mxGeometry x="-60" y="-100" width="80" height="40" as="geometry" />
        </mxCell>
        <mxCell id="zBm_orGE7oxzUlVK6M75-61" style="edgeStyle=orthogonalEdgeStyle;rounded=0;orthogonalLoop=1;jettySize=auto;html=1;entryX=0;entryY=1;entryDx=0;entryDy=0;" parent="1" source="zBm_orGE7oxzUlVK6M75-56" target="e5CkcNzQbHRtyyJBKM_Y-19" edge="1">
          <mxGeometry relative="1" as="geometry" />
        </mxCell>
        <mxCell id="zBm_orGE7oxzUlVK6M75-56" value="date" style="ellipse;whiteSpace=wrap;html=1;fillColor=#647687;fontColor=#ffffff;strokeColor=#314354;" parent="1" vertex="1">
          <mxGeometry x="-220" y="60" width="80" height="40" as="geometry" />
        </mxCell>
        <mxCell id="zBm_orGE7oxzUlVK6M75-57" value="post_İD" style="ellipse;whiteSpace=wrap;html=1;fillColor=#647687;fontColor=#ffffff;strokeColor=#314354;fontStyle=4" parent="1" vertex="1">
          <mxGeometry x="-220" y="-30" width="80" height="40" as="geometry" />
        </mxCell>
        <mxCell id="zBm_orGE7oxzUlVK6M75-58" style="edgeStyle=orthogonalEdgeStyle;rounded=0;orthogonalLoop=1;jettySize=auto;html=1;entryX=0.688;entryY=0.15;entryDx=0;entryDy=0;entryPerimeter=0;" parent="1" source="zBm_orGE7oxzUlVK6M75-55" target="e5CkcNzQbHRtyyJBKM_Y-19" edge="1">
          <mxGeometry relative="1" as="geometry" />
        </mxCell>
        <mxCell id="zBm_orGE7oxzUlVK6M75-59" style="edgeStyle=orthogonalEdgeStyle;rounded=0;orthogonalLoop=1;jettySize=auto;html=1;entryX=0.875;entryY=0.438;entryDx=0;entryDy=0;entryPerimeter=0;" parent="1" source="zBm_orGE7oxzUlVK6M75-53" target="e5CkcNzQbHRtyyJBKM_Y-19" edge="1">
          <mxGeometry relative="1" as="geometry" />
        </mxCell>
        <mxCell id="zBm_orGE7oxzUlVK6M75-62" style="edgeStyle=orthogonalEdgeStyle;rounded=0;orthogonalLoop=1;jettySize=auto;html=1;entryX=0.088;entryY=0.413;entryDx=0;entryDy=0;entryPerimeter=0;" parent="1" source="zBm_orGE7oxzUlVK6M75-57" target="e5CkcNzQbHRtyyJBKM_Y-19" edge="1">
          <mxGeometry relative="1" as="geometry" />
        </mxCell>
        <mxCell id="zBm_orGE7oxzUlVK6M75-73" style="edgeStyle=orthogonalEdgeStyle;rounded=0;orthogonalLoop=1;jettySize=auto;html=1;entryX=0;entryY=0;entryDx=0;entryDy=0;" parent="1" source="zBm_orGE7oxzUlVK6M75-63" target="e5CkcNzQbHRtyyJBKM_Y-23" edge="1">
          <mxGeometry relative="1" as="geometry" />
        </mxCell>
        <mxCell id="zBm_orGE7oxzUlVK6M75-63" value="job_seeker_İD" style="ellipse;whiteSpace=wrap;html=1;fillColor=#a0522d;fontColor=#ffffff;strokeColor=#6D1F00;" parent="1" vertex="1">
          <mxGeometry x="40" y="210" width="80" height="40" as="geometry" />
        </mxCell>
        <mxCell id="zBm_orGE7oxzUlVK6M75-70" style="edgeStyle=orthogonalEdgeStyle;rounded=0;orthogonalLoop=1;jettySize=auto;html=1;entryX=0.5;entryY=0;entryDx=0;entryDy=0;" parent="1" source="zBm_orGE7oxzUlVK6M75-64" target="e5CkcNzQbHRtyyJBKM_Y-23" edge="1">
          <mxGeometry relative="1" as="geometry" />
        </mxCell>
        <mxCell id="zBm_orGE7oxzUlVK6M75-64" value="application_İD" style="ellipse;whiteSpace=wrap;html=1;fillColor=#647687;fontColor=#ffffff;strokeColor=#314354;fontStyle=4" parent="1" vertex="1">
          <mxGeometry x="130" y="160" width="80" height="40" as="geometry" />
        </mxCell>
        <mxCell id="zBm_orGE7oxzUlVK6M75-72" style="edgeStyle=orthogonalEdgeStyle;rounded=0;orthogonalLoop=1;jettySize=auto;html=1;entryX=1;entryY=0;entryDx=0;entryDy=0;" parent="1" source="zBm_orGE7oxzUlVK6M75-66" target="e5CkcNzQbHRtyyJBKM_Y-23" edge="1">
          <mxGeometry relative="1" as="geometry" />
        </mxCell>
        <mxCell id="zBm_orGE7oxzUlVK6M75-66" value="job_posting_İD" style="ellipse;whiteSpace=wrap;html=1;fillColor=#a0522d;fontColor=#ffffff;strokeColor=#6D1F00;" parent="1" vertex="1">
          <mxGeometry x="220" y="210" width="80" height="40" as="geometry" />
        </mxCell>
        <mxCell id="zBm_orGE7oxzUlVK6M75-76" style="edgeStyle=orthogonalEdgeStyle;rounded=0;orthogonalLoop=1;jettySize=auto;html=1;entryX=0.5;entryY=1;entryDx=0;entryDy=0;" parent="1" source="zBm_orGE7oxzUlVK6M75-67" target="e5CkcNzQbHRtyyJBKM_Y-23" edge="1">
          <mxGeometry relative="1" as="geometry" />
        </mxCell>
        <mxCell id="zBm_orGE7oxzUlVK6M75-67" value="applicaiton_DATE" style="ellipse;whiteSpace=wrap;html=1;fillColor=#647687;fontColor=#ffffff;strokeColor=#314354;" parent="1" vertex="1">
          <mxGeometry x="130" y="330" width="80" height="40" as="geometry" />
        </mxCell>
        <mxCell id="zBm_orGE7oxzUlVK6M75-74" style="edgeStyle=orthogonalEdgeStyle;rounded=0;orthogonalLoop=1;jettySize=auto;html=1;entryX=1;entryY=1;entryDx=0;entryDy=0;" parent="1" source="zBm_orGE7oxzUlVK6M75-68" target="e5CkcNzQbHRtyyJBKM_Y-23" edge="1">
          <mxGeometry relative="1" as="geometry" />
        </mxCell>
        <mxCell id="zBm_orGE7oxzUlVK6M75-68" value="status" style="ellipse;whiteSpace=wrap;html=1;fillColor=#647687;fontColor=#ffffff;strokeColor=#314354;" parent="1" vertex="1">
          <mxGeometry x="220" y="280" width="80" height="40" as="geometry" />
        </mxCell>
        <mxCell id="zBm_orGE7oxzUlVK6M75-75" style="edgeStyle=orthogonalEdgeStyle;rounded=0;orthogonalLoop=1;jettySize=auto;html=1;entryX=0;entryY=1;entryDx=0;entryDy=0;" parent="1" source="zBm_orGE7oxzUlVK6M75-69" target="e5CkcNzQbHRtyyJBKM_Y-23" edge="1">
          <mxGeometry relative="1" as="geometry" />
        </mxCell>
        <mxCell id="zBm_orGE7oxzUlVK6M75-69" value="motivation_letter" style="ellipse;whiteSpace=wrap;html=1;fillColor=#647687;fontColor=#ffffff;strokeColor=#314354;" parent="1" vertex="1">
          <mxGeometry x="40" y="280" width="80" height="40" as="geometry" />
        </mxCell>
      </root>
    </mxGraphModel>
  </diagram>
</mxfile>
